<?xml version="1.0" encoding="utf-8"?>
<!-- Generator: Adobe Illustrator 16.0.0, SVG Export Plug-In . SVG Version: 6.00 Build 0)  -->
<!DOCTYPE svg PUBLIC "-//W3C//DTD SVG 1.1//EN" "http://www.w3.org/Graphics/SVG/1.1/DTD/svg11.dtd">
<svg version="1.1" id="Calque_1" xmlns="http://www.w3.org/2000/svg" xmlns:xlink="http://www.w3.org/1999/xlink" x="0px" y="0px"
	 width="841.89px" height="595.277px" viewBox="0 0 841.89 595.277" enable-background="new 0 0 841.89 595.277"
	 xml:space="preserve">
<rect x="25.636" y="421.5" width="799.045" height="10.381"/>
<g>
	<g>
		<g>
			<path d="M57.594,392.692c-10.964,0-17.962-3.268-23.095-8.866c-6.531-6.995-8.863-14.695-8.863-31.021v-95.639
				c0-12.13,1.166-21.461,8.863-29.858c4.667-5.369,15.164-8.864,23.095-8.864c16.561,0,24.026,8.629,26.593,12.36
				c4.432,6.532,5.365,18.195,5.365,26.363v20.76H66.922v-20.76c0-5.135-0.232-10.033-1.632-13.298
				c-1.167-3.267-3.501-5.131-7.698-5.131c-3.734,0-6.765,2.333-7.699,4.431c-1.632,3.5-1.632,11.663-1.632,13.999v95.639
				c0,10.962-0.234,19.361,9.331,19.361c9.098,0,9.33-11.197,9.33-19.361v-22.162H89.55v22.162c0,6.997,0,17.73-5.133,25.893
				C79.751,386.393,70.656,392.692,57.594,392.692"/>
		</g>
	</g>
	<g>
		<g>
			<path d="M115.035,359.567c0,5.599,0,14.461,8.63,14.461s8.63-7.461,8.63-14.461v-67.412c0-7-2.331-11.433-8.63-11.433
				s-8.63,4.901-8.63,11.433V359.567z M123.665,391.993c-22.627,0-28.458-16.329-28.458-32.426v-67.409
				c0-6.067,1.634-29.625,28.458-29.625c26.359,0,28.692,21.461,28.692,29.625v67.409
				C152.357,377.53,145.825,391.993,123.665,391.993"/>
		</g>
	</g>
</g>
<rect x="160.749" y="219.84" width="20.064" height="170.517"/>
<rect x="190.603" y="219.84" width="20.063" height="170.517"/>
<path d="M220.459,264.161h20.528v126.202h-20.528V264.161z M220.459,220.541h20.528v20.996h-20.528V220.541z"/>
<polygon points="250.329,390.357 250.329,220.541 278.787,220.541 303.514,324.111 303.514,220.541 324.506,220.541 
	324.506,390.357 296.514,390.357 271.089,282.592 271.089,390.357 "/>
<polygon points="320.187,390.357 356.11,220.541 420.96,220.541 416.293,242.002 375.706,242.002 364.51,291.687 395.633,291.687 
	390.969,313.148 360.308,313.148 343.281,390.357 "/>
<g>
	<g>
		<g>
			<path d="M407.306,364.236c0,5.599,3.495,9.563,9.327,9.563c10.268,0,12.832-10.497,14.93-19.596
				c3.267-13.993,13.062-58.316,13.062-63.683c0-6.532-4.43-9.328-9.796-9.328c-10.264,0-13.292,12.363-14.929,20.295
				C417.101,315.247,407.306,358.169,407.306,364.236 M414.535,391.993c-13.063,0-28.225-7.93-28.225-27.757
				c0-9.101,8.866-48.055,11.899-62.75c3.028-14.699,11.426-38.956,37.318-38.956c19.365,0,29.862,9.797,29.862,27.99
				c0,10.03-9.105,49.216-12.134,63.679C449.992,371,442.527,391.993,414.535,391.993"/>
		</g>
	</g>
	<g>
		<g>
			<path d="M453.781,390.357l26.599-126.197h19.592l-1.866,9.797c9.562-6.765,14.696-11.428,24.957-11.428
				c7.697,0,16.796,6.297,16.796,20.292c0,7.234-1.165,12.132-2.331,18.194l-18.662,89.341h-21.461l19.127-90.274
				c0.7-3.031,1.165-7.466,1.165-9.1c0-6.062-3.499-8.863-6.764-8.863c-5.599,0-10.493,4.666-14.926,8.63l-20.997,99.606
				L453.781,390.357L453.781,390.357z"/>
		</g>
	</g>
	<g>
		<g>
			<path d="M558.281,391.993c-14.229,0-24.024-5.366-24.024-20.528c0-4.43,1.63-13.062,3.031-19.592l13.761-68.581h-11.539
				l3.732-19.127h12.004l6.768-31.024h21.465l-6.532,31.024h15.859l-3.732,19.127h-15.865l-16.331,77.909
				c-0.462,1.869-0.462,3.503-0.462,5.366c0,5.134,5.131,7.232,9.8,7.232c1.633,0,3.499-0.234,5.133-0.465l-3.965,18.429
				C564.348,391.759,561.316,391.993,558.281,391.993"/>
		</g>
	</g>
	<g>
		<g>
			<path d="M593.732,362.603c0,6.296,3.271,10.496,8.869,10.496c5.831,0,10.493-6.531,14.927-10.73l6.996-32.891
				c-5.831,0-13.528,3.268-19.592,7.928C598.633,342.541,593.732,355.37,593.732,362.603 M591.633,391.993
				c-12.595,0-19.592-7.697-19.592-28.227c0-3.965,5.599-31.263,20.996-41.052c9.099-5.599,17.028-8.634,35.454-11.202l2.335-11.43
				c0.465-2.797,1.397-5.362,1.397-8.167c0-6.531-3.268-10.959-8.862-10.959c-11.662,0-14.229,16.329-15.63,21.924h-21.223
				c2.563-14.694,10.729-40.352,38.018-40.352c14.93,0,28.927,7.696,28.927,29.391c0,3.965-0.93,7.93-1.866,11.898l-18.19,86.539
				h-20.066l2.334-11.895C609.831,384.293,602.366,391.993,591.633,391.993"/>
		</g>
	</g>
</g>
<path d="M673.374,242.47l4.669-21.929H699.5l-4.666,21.929H673.374z M642.584,390.357l26.592-126.197h20.996l-25.891,126.197
	H642.584z"/>
<g>
	<g>
		<g>
			<path d="M673.892,390.357l26.595-126.197h19.592l-1.863,9.797c9.563-6.765,14.694-11.428,24.958-11.428
				c7.697,0,16.792,6.297,16.792,20.292c0,7.234-1.162,12.132-2.327,18.194l-18.662,89.341h-21.461l19.126-90.274
				c0.701-3.031,1.166-7.466,1.166-9.1c0-6.062-3.5-8.863-6.765-8.863c-5.598,0-10.496,4.666-14.926,8.63l-20.996,99.606
				L673.892,390.357L673.892,390.357z"/>
		</g>
	</g>
	<g>
		<g>
			<path d="M787.258,297.052l-3.736,16.097h23.099c1.162-5.132,4.193-18.895,4.193-23.326c0-5.836-3.496-8.866-9.095-8.866
				C792.391,280.958,788.892,290.057,787.258,297.052 M782.825,391.993c-22.162,0-30.324-12.129-30.324-26.827
				c0-8.631,10.261-61.813,16.096-77.444c5.831-16.095,18.668-25.192,34.056-25.192c15.162,0,29.162,8.629,29.162,27.292
				c0,12.131-5.599,33.355-7.468,41.986h-44.789c-1.172,6.764-6.063,27.755-6.063,33.824c0,4.902,4.43,8.396,9.331,8.396
				c12.359,0,14.697-16.329,16.327-26.358h21.462C817.582,364.465,811.983,391.993,782.825,391.993"/>
		</g>
	</g>
</g>
</svg>
